name C:\Users\u0101727\Documents\MyRepositories\upper-imu-dc\OpenSim\subject0\MA\ResultsMA\grid_4nodes_9dim\angles_8.mot
datacolumns 10
datarows 33
range 850.01000000 850.33000000
endheader 
time	clav_prot	clav_elev	scapula_abduction	scapula_elevation	scapula_upward_rot	scapula_winging	plane_elv	shoulder_elv	axial_rot	
        850.01000000	        -50.00000000	         10.00000000	        -40.00000000	        -10.00000000	          0.00000000	         10.00000000	        -90.00000000	         26.66666667	        -30.00000000	
        850.02000000	        -38.33333333	         10.00000000	        -40.00000000	        -10.00000000	          0.00000000	         10.00000000	        -90.00000000	         26.66666667	        -30.00000000	
        850.03000000	        -26.66666667	         10.00000000	        -40.00000000	        -10.00000000	          0.00000000	         10.00000000	        -90.00000000	         26.66666667	        -30.00000000	
        850.04000000	        -15.00000000	         10.00000000	        -40.00000000	        -10.00000000	          0.00000000	         10.00000000	        -90.00000000	         26.66666667	        -30.00000000	
        850.05000000	        -50.00000000	         20.00000000	        -40.00000000	        -10.00000000	          0.00000000	         10.00000000	        -90.00000000	         26.66666667	        -30.00000000	
        850.06000000	        -38.33333333	         20.00000000	        -40.00000000	        -10.00000000	          0.00000000	         10.00000000	        -90.00000000	         26.66666667	        -30.00000000	
        850.07000000	        -26.66666667	         20.00000000	        -40.00000000	        -10.00000000	          0.00000000	         10.00000000	        -90.00000000	         26.66666667	        -30.00000000	
        850.08000000	        -15.00000000	         20.00000000	        -40.00000000	        -10.00000000	          0.00000000	         10.00000000	        -90.00000000	         26.66666667	        -30.00000000	
        850.09000000	        -50.00000000	        -10.00000000	        -21.66666667	        -10.00000000	          0.00000000	         10.00000000	        -90.00000000	         26.66666667	        -30.00000000	
        850.10000000	        -38.33333333	        -10.00000000	        -21.66666667	        -10.00000000	          0.00000000	         10.00000000	        -90.00000000	         26.66666667	        -30.00000000	
        850.11000000	        -26.66666667	        -10.00000000	        -21.66666667	        -10.00000000	          0.00000000	         10.00000000	        -90.00000000	         26.66666667	        -30.00000000	
        850.12000000	        -15.00000000	        -10.00000000	        -21.66666667	        -10.00000000	          0.00000000	         10.00000000	        -90.00000000	         26.66666667	        -30.00000000	
        850.13000000	        -50.00000000	          0.00000000	        -21.66666667	        -10.00000000	          0.00000000	         10.00000000	        -90.00000000	         26.66666667	        -30.00000000	
        850.14000000	        -38.33333333	          0.00000000	        -21.66666667	        -10.00000000	          0.00000000	         10.00000000	        -90.00000000	         26.66666667	        -30.00000000	
        850.15000000	        -26.66666667	          0.00000000	        -21.66666667	        -10.00000000	          0.00000000	         10.00000000	        -90.00000000	         26.66666667	        -30.00000000	
        850.16000000	        -15.00000000	          0.00000000	        -21.66666667	        -10.00000000	          0.00000000	         10.00000000	        -90.00000000	         26.66666667	        -30.00000000	
        850.17000000	        -50.00000000	         10.00000000	        -21.66666667	        -10.00000000	          0.00000000	         10.00000000	        -90.00000000	         26.66666667	        -30.00000000	
        850.18000000	        -38.33333333	         10.00000000	        -21.66666667	        -10.00000000	          0.00000000	         10.00000000	        -90.00000000	         26.66666667	        -30.00000000	
        850.19000000	        -26.66666667	         10.00000000	        -21.66666667	        -10.00000000	          0.00000000	         10.00000000	        -90.00000000	         26.66666667	        -30.00000000	
        850.20000000	        -15.00000000	         10.00000000	        -21.66666667	        -10.00000000	          0.00000000	         10.00000000	        -90.00000000	         26.66666667	        -30.00000000	
        850.21000000	        -50.00000000	         20.00000000	        -21.66666667	        -10.00000000	          0.00000000	         10.00000000	        -90.00000000	         26.66666667	        -30.00000000	
        850.22000000	        -38.33333333	         20.00000000	        -21.66666667	        -10.00000000	          0.00000000	         10.00000000	        -90.00000000	         26.66666667	        -30.00000000	
        850.23000000	        -26.66666667	         20.00000000	        -21.66666667	        -10.00000000	          0.00000000	         10.00000000	        -90.00000000	         26.66666667	        -30.00000000	
        850.24000000	        -15.00000000	         20.00000000	        -21.66666667	        -10.00000000	          0.00000000	         10.00000000	        -90.00000000	         26.66666667	        -30.00000000	
        850.25000000	        -50.00000000	        -10.00000000	         -3.33333333	        -10.00000000	          0.00000000	         10.00000000	        -90.00000000	         26.66666667	        -30.00000000	
        850.26000000	        -38.33333333	        -10.00000000	         -3.33333333	        -10.00000000	          0.00000000	         10.00000000	        -90.00000000	         26.66666667	        -30.00000000	
        850.27000000	        -26.66666667	        -10.00000000	         -3.33333333	        -10.00000000	          0.00000000	         10.00000000	        -90.00000000	         26.66666667	        -30.00000000	
        850.28000000	        -15.00000000	        -10.00000000	         -3.33333333	        -10.00000000	          0.00000000	         10.00000000	        -90.00000000	         26.66666667	        -30.00000000	
        850.29000000	        -50.00000000	          0.00000000	         -3.33333333	        -10.00000000	          0.00000000	         10.00000000	        -90.00000000	         26.66666667	        -30.00000000	
        850.30000000	        -38.33333333	          0.00000000	         -3.33333333	        -10.00000000	          0.00000000	         10.00000000	        -90.00000000	         26.66666667	        -30.00000000	
        850.31000000	        -26.66666667	          0.00000000	         -3.33333333	        -10.00000000	          0.00000000	         10.00000000	        -90.00000000	         26.66666667	        -30.00000000	
        850.32000000	        -15.00000000	          0.00000000	         -3.33333333	        -10.00000000	          0.00000000	         10.00000000	        -90.00000000	         26.66666667	        -30.00000000	
        850.33000000	        -50.00000000	         10.00000000	         -3.33333333	        -10.00000000	          0.00000000	         10.00000000	        -90.00000000	         26.66666667	        -30.00000000	
